HIERARCHY
ROOT Hips
{
  OFFSET 179.979 97.3047 303.174
  CHANNELS 6 Xposition Yposition Zposition Zrotation Xrotation Yrotation
  JOINT Spine
  {
    OFFSET 0.000859786 9.92346 -1.22733
    CHANNELS 3 Zrotation Xrotation Yrotation
    JOINT Spine1
    {
      OFFSET 0 11.732 0
      CHANNELS 3 Zrotation Xrotation Yrotation
      JOINT Spine2
      {
        OFFSET 0 13.4588 0
        CHANNELS 3 Zrotation Xrotation Yrotation
        JOINT Neck
        {
          OFFSET 2.54812e-05 15.0278 0.877907
          CHANNELS 3 Zrotation Xrotation Yrotation
          JOINT Head
          {
            OFFSET 0 10.3218 3.14243
            CHANNELS 3 Zrotation Xrotation Yrotation
            End Site
            {
              OFFSET 0 0 0
            }
          }
        }
        JOINT LeftShoulder
        {
          OFFSET 6.10582 9.10629 0.757062
          CHANNELS 3 Zrotation Xrotation Yrotation
          JOINT LeftArm
          {
            OFFSET 0 12.9223 0
            CHANNELS 3 Zrotation Xrotation Yrotation
            JOINT LeftForeArm
            {
              OFFSET 0 27.4047 0
              CHANNELS 3 Zrotation Xrotation Yrotation
              JOINT LeftHand
              {
                OFFSET -1.28204e-05 27.6145 0
                CHANNELS 3 Zrotation Xrotation Yrotation
                End Site
                {
                  OFFSET 0 0 0
                }
              }
            }
          }
        }
        JOINT RightShoulder
        {
          OFFSET -6.1057 9.10638 0.757076
          CHANNELS 3 Zrotation Xrotation Yrotation
          JOINT RightArm
          {
            OFFSET 0 12.9223 0
            CHANNELS 3 Zrotation Xrotation Yrotation
            JOINT RightForeArm
            {
              OFFSET 0 27.4047 0
              CHANNELS 3 Zrotation Xrotation Yrotation
              JOINT RightHand
              {
                OFFSET 1.28428e-05 27.6145 1.44975e-05
                CHANNELS 3 Zrotation Xrotation Yrotation
                End Site
                {
                  OFFSET 0 0 0
                }
              }
            }
          }
        }
      }
    }
  }
  JOINT LeftUpLeg
  {
    OFFSET 9.12387 -6.65719 -0.0554031
    CHANNELS 3 Zrotation Xrotation Yrotation
    JOINT LeftLeg
    {
      OFFSET 0 40.5994 0
      CHANNELS 3 Zrotation Xrotation Yrotation
      JOINT LeftFoot
      {
        OFFSET 0 42.099 0
        CHANNELS 3 Zrotation Xrotation Yrotation
        JOINT LeftToeBase
        {
          OFFSET 0 15.7216 0
          CHANNELS 3 Zrotation Xrotation Yrotation
          End Site
          {
            OFFSET 0 0 0
          }
        }
      }
    }
  }
  JOINT RightUpLeg
  {
    OFFSET -9.12503 -6.6556 -0.0553527
    CHANNELS 3 Zrotation Xrotation Yrotation
    JOINT RightLeg
    {
      OFFSET 0 40.5994 0
      CHANNELS 3 Zrotation Xrotation Yrotation
      JOINT RightFoot
      {
        OFFSET 0 42.099 0
        CHANNELS 3 Zrotation Xrotation Yrotation
        JOINT RightToeBase
        {
          OFFSET 0 15.7216 0
          CHANNELS 3 Zrotation Xrotation Yrotation
          End Site
          {
            OFFSET 0 0 0
          }
        }
      }
    }
  }
}
MOTION
Frames:	12
Frame Time:	0.0333333
204.609 94.177 -402.576 1.37958 11.3185 -0.432297 -0.155877 5.38674 1.53956 -0.70062 24.7133 3.27376 -1.1402 31.2964 3.48094 -14.8023 -3.39454 -9.49906 17.4364 -22.9567 -13.1898 -99.3941 -5.36245 91.8837 16.2156 70.6029 9.79251 105.664 -1.81031 1.56005 4.57539 -1.60673 68.2541 100.084 -9.08565 -91.3181 -40.7755 61.4538 29.6438 -112.652 2.52764 -0.0703543 -5.60122 -4.81917 -53.7261 178.181 42.7223 12.9753 -2.85717 -33.9526 -9.62413 9.78485 56.8672 -10.2623 -0.965279 26.367 -3.60229 -179.039 32.2617 6.70946 7.5029 -41.4221 6.47945 -25.5928 77.3553 14.2099 0.963531 26.3682 3.55537 
204.58 94.0117 -400.441 1.81817 10.7778 -0.99876 -0.219587 5.36393 1.56588 -0.842508 24.6653 3.35944 -1.29335 31.2477 3.57154 -15.1703 -3.38504 -9.58135 18.0006 -22.8333 -13.3833 -99.5529 -5.62841 91.8512 14.8273 69.7856 11.3464 105.272 -1.81311 1.54587 8.71885 -1.7943 66.3501 99.9064 -9.05392 -91.3147 -39.6637 61.2525 27.9032 -111.95 2.55813 -0.0605831 -7.80488 -6.29802 -47.5304 177.354 40.5324 15.5344 -2.955 -25.068 -7.95861 6.69215 55.7132 -8.47114 -0.965279 26.367 -3.60229 -179.393 31.2736 6.75073 7.43749 -43.1904 6.50198 -26.6053 78.1034 15.2337 0.963531 26.3682 3.55537 
204.522 93.6756 -398.246 2.47554 9.91862 -1.32049 -0.319725 5.2997 1.51209 -1.04188 24.5342 3.29577 -1.48348 31.1171 3.50255 -15.1888 -2.92243 -9.46301 18.3693 -23.0173 -13.3205 -99.4152 -5.64007 91.8378 13.9218 69.0162 12.1099 105.207 -1.81419 1.54342 11.6285 -0.960577 67.1187 99.8713 -8.90915 -91.3386 -37.8846 60.9258 24.9922 -111.374 2.53712 -0.0514247 -10.353 -8.51822 -44.979 176.254 39.2985 15.7008 -3.91849 -20.8149 -4.77676 3.22639 52.3692 -3.88984 -0.965279 26.367 -3.60229 179.945 30.2781 7.17378 6.96629 -45.7985 6.25931 -27.5198 79.0214 16.4032 0.963531 26.3682 3.55537 
204.456 93.323 -395.959 3.31777 8.8735 -1.5465 -0.480808 5.23082 1.40295 -1.35847 24.3928 3.1469 -1.77937 30.9768 3.34299 -14.8612 -2.6481 -9.42101 18.145 -23.2344 -13.2112 -99.3411 -5.61539 91.8361 13.9393 68.0522 11.81 105.151 -1.83667 1.54022 13.3127 -0.104176 67.3872 100.044 -8.71425 -91.3826 -36.0484 60.5894 21.9894 -110.993 2.52522 -0.045602 -13.0908 -10.6446 -44.6702 174.522 39.4299 11.665 -2.65205 -25.4943 -1.23926 2.18182 54.135 0.130688 -0.965279 26.367 -3.60229 179.043 29.3638 7.41135 6.55988 -48.825 6.10109 -26.9701 79.2859 16.2437 0.963531 26.3682 3.55537 
204.373 92.971 -393.556 3.3574 7.70374 -1.76908 -0.52411 5.21878 1.39118 -1.44794 24.3673 3.14349 -1.86826 30.9512 3.33909 -14.9157 -3.18805 -9.46189 18.2363 -23.1774 -13.1939 -99.2636 -5.51171 91.8472 14.7903 67.1919 10.4197 105.082 -1.80146 1.53939 14.4935 0.595808 65.9063 100.16 -8.81521 -91.3707 -35.0913 60.4922 20.024 -110.769 2.51003 -0.0455121 -15.3456 -12.8857 -43.725 173.602 39.6309 10.1589 -0.95453 -31.7781 0.238902 1.28202 58.9315 0.873542 -0.965279 26.367 -3.60229 178.894 28.4437 7.3236 6.54224 -51.9194 6.24378 -22.9906 78.1058 13.1048 0.963531 26.3682 3.55537 
204.221 92.9181 -391.188 3.68839 6.8341 -2.17 -0.660192 5.1518 1.38964 -1.73582 24.2287 3.20493 -2.1637 30.8122 3.40304 -15.1273 -3.30547 -9.40385 18.3963 -23.3446 -13.1413 -99.0997 -5.4534 91.8435 16.0959 66.6859 8.52509 105.238 -1.74738 1.54658 13.8186 1.55061 63.9075 100.227 -8.74083 -91.3877 -34.1847 60.7306 18.8445 -110.716 2.60264 -0.0480249 -16.2386 -14.8484 -41.9941 174.373 38.9001 10.4447 -3.69147 -34.9538 -1.79939 2.92266 61.7581 0.00355346 -0.965279 26.367 -3.60229 178.529 27.5546 7.13212 6.43134 -54.1562 6.14576 -18.4967 75.9918 9.3062 0.963531 26.3682 3.55537 
204.091 93.0142 -388.863 4.33977 6.29428 -3.10108 -0.903331 5.00289 1.42844 -2.25729 23.9211 3.39847 -2.7095 30.5033 3.60548 -15.544 -3.6603 -9.3221 18.4408 -22.7362 -13.1839 -99.0628 -5.61763 91.8127 16.6765 66.5076 7.39443 105.834 -1.59659 1.57272 12.6144 2.35493 63.727 100.156 -8.85215 -91.3638 -33.5632 61.4371 18.028 -110.676 2.6725 -0.0515886 -15.0057 -15.0525 -39.8543 174.664 37.6291 8.76393 -4.30922 -36.73 -2.01975 3.48822 64.2259 0.081048 -0.965279 26.367 -3.60229 177.647 27.629 6.93022 6.11751 -56.9381 5.40704 -12.1034 72.7297 4.4326 0.963531 26.3682 3.55537 
203.995 93.109 -386.673 5.23263 6.1014 -4.20394 -1.17026 4.7827 1.43128 -2.81575 23.4701 3.52366 -3.28242 30.0514 3.73379 -16.2026 -4.01068 -9.23907 18.2934 -22.6061 -13.1964 -99.1134 -5.83526 91.7801 16.2591 66.4958 7.48194 106.894 -1.4748 1.61473 11.4793 2.81352 64.2751 99.9139 -9.01806 -91.3215 -32.8315 62.287 17.1495 -110.994 2.64793 -0.054652 -11.9445 -13.7906 -39.1501 174.32 36.3721 7.80253 -4.49823 -37.7441 -2.36389 4.36035 66.4602 -0.523572 -0.965279 26.367 -3.60229 176.142 29.5645 6.27457 6.5316 -61.4961 5.25092 -4.37827 68.3352 0.69496 0.963531 26.3682 3.55537 
203.933 93.1902 -384.45 5.48501 5.63292 -5.13009 -1.26013 4.6412 1.38418 -2.989 23.1848 3.46255 -3.44621 29.7665 3.66632 -17.088 -4.50557 -9.17666 18.1326 -22.5629 -13.2334 -99.2665 -6.20216 91.7298 16.3407 66.4279 7.38595 108.442 -1.35109 1.67462 9.59719 3.39449 64.2407 99.8431 -9.06781 -91.3089 -32.2387 62.4688 16.4406 -111.337 2.69211 -0.055674 -7.96436 -11.5098 -39.5186 174.722 34.8892 5.69229 -4.22369 -39.0275 -1.85104 4.42016 68.7945 -0.168819 -0.965279 26.367 -3.60229 175.153 31.8936 5.5723 6.27871 -66.6855 4.49102 3.51355 63.2796 -1.08635 0.963531 26.3682 3.55537 
203.854 93.3446 -382.208 5.07318 4.85426 -5.75775 -1.17214 4.57042 1.30993 -2.7818 23.049 3.26401 -3.21217 29.6322 3.45497 -17.6013 -4.1806 -9.0628 18.4155 -22.7725 -13.2559 -99.3981 -6.35652 91.7135 17.3512 66.4174 6.69113 109.631 -1.19643 1.72241 8.18196 3.59006 63.1907 100.182 -8.8669 -91.3627 -31.5822 61.9516 15.7042 -111.169 2.65435 -0.0526231 -4.38325 -9.13139 -41.1664 175.99 32.9097 3.61868 -4.53683 -40.1082 -1.53529 4.27155 71.0672 0.508608 -0.965279 26.367 -3.60229 174.975 33.8653 4.39516 6.49316 -70.8753 3.69595 7.72361 56.8072 -1.92917 0.963531 26.3682 3.55537 
203.69 93.3543 -380.007 5.10918 3.88772 -6.30635 -1.13079 4.53215 1.19909 -2.66793 22.977 3.01389 -3.06494 29.5619 3.1896 -17.2656 -3.80746 -9.22547 18.2282 -22.7861 -13.4079 -99.1928 -6.30992 91.7059 19.419 66.6227 5.47715 110.414 -1.18376 1.75121 7.02898 4.02438 63.033 100.296 -9.1221 -91.3223 -31.0978 62.0869 14.8446 -110.639 2.41145 -0.0368694 -0.360559 -6.71055 -45.6477 176.456 30.7404 2.25325 -4.71515 -41.1245 -1.35761 4.11245 73.2859 0.858634 -0.965279 26.367 -3.60229 174.956 35.3722 3.16652 5.44692 -74.0714 1.60646 8.1493 53.9575 -3.17304 0.963531 26.3682 3.55537 
203.485 93.4713 -377.849 5.14755 3.05523 -6.93376 -1.06362 4.49093 1.08076 -2.49767 22.9001 2.73612 -2.85769 29.4866 2.89508 -16.678 -4.31891 -9.3552 17.7915 -22.2716 -13.3931 -98.8836 -6.33634 91.6779 22.3267 66.8864 3.88352 111.15 -1.23663 1.77638 6.07835 4.82957 63.7771 100.324 -9.29287 -91.2927 -29.8848 62.6433 13.4629 -110.192 2.11929 -0.0213033 2.75623 -4.06695 -53.3316 176.683 28.393 1.79108 -5.05774 -41.41 -1.67938 4.71264 75.0169 0.267277 -0.965279 26.367 -3.60229 175.003 36.8403 1.18427 5.85499 -75.842 1.63483 9.64626 56.5379 -3.93933 0.963531 26.3682 3.55537 
